<svg width="106" height="48" viewBox="0 0 106 48" fill="none" xmlns="http://www.w3.org/2000/svg">
<rect x="0.5" y="0.5" width="47" height="47" rx="3.5" stroke="#C8CACB"/>
<path d="M32.16 17C31.1 15.9373 29.6948 15.2886 28.1984 15.1712C26.7019 15.0538 25.2128 15.4755 24 16.36C22.7277 15.4137 21.144 14.9846 19.568 15.1591C17.9919 15.3336 16.5405 16.0988 15.506 17.3006C14.4715 18.5024 13.9309 20.0516 13.9928 21.6361C14.0548 23.2206 14.7148 24.7227 15.84 25.84L22.05 32.06C22.57 32.5718 23.2704 32.8587 24 32.8587C24.7296 32.8587 25.43 32.5718 25.95 32.06L32.16 25.84C33.3276 24.6653 33.983 23.0763 33.983 21.42C33.983 19.7638 33.3276 18.1748 32.16 17ZM30.75 24.46L24.54 30.67C24.4694 30.7414 24.3853 30.798 24.2926 30.8367C24.1999 30.8753 24.1005 30.8953 24 30.8953C23.8996 30.8953 23.8002 30.8753 23.7075 30.8367C23.6148 30.798 23.5307 30.7414 23.46 30.67L17.25 24.43C16.4658 23.6284 16.0266 22.5515 16.0266 21.43C16.0266 20.3086 16.4658 19.2317 17.25 18.43C18.0492 17.641 19.127 17.1986 20.25 17.1986C21.3731 17.1986 22.4509 17.641 23.25 18.43C23.343 18.5238 23.4536 18.5982 23.5755 18.6489C23.6973 18.6997 23.828 18.7258 23.96 18.7258C24.092 18.7258 24.2227 18.6997 24.3446 18.6489C24.4665 18.5982 24.5771 18.5238 24.67 18.43C25.4692 17.641 26.547 17.1986 27.67 17.1986C28.7931 17.1986 29.8709 17.641 30.67 18.43C31.4651 19.2212 31.9186 20.2922 31.9336 21.4137C31.9485 22.5352 31.5237 23.618 30.75 24.43V24.46Z" fill="#C8CACB"/>
<rect x="58.5" y="0.5" width="47" height="47" rx="3.5" stroke="#C8CACB"/>
<path d="M75 24C74.7348 24 74.4804 24.1054 74.2929 24.2929C74.1054 24.4804 74 24.7348 74 25V33C74 33.2652 74.1054 33.5196 74.2929 33.7071C74.4804 33.8946 74.7348 34 75 34C75.2652 34 75.5196 33.8946 75.7071 33.7071C75.8946 33.5196 76 33.2652 76 33V25C76 24.7348 75.8946 24.4804 75.7071 24.2929C75.5196 24.1054 75.2652 24 75 24ZM80 14C79.7348 14 79.4804 14.1054 79.2929 14.2929C79.1054 14.4804 79 14.7348 79 15V33C79 33.2652 79.1054 33.5196 79.2929 33.7071C79.4804 33.8946 79.7348 34 80 34C80.2652 34 80.5196 33.8946 80.7071 33.7071C80.8946 33.5196 81 33.2652 81 33V15C81 14.7348 80.8946 14.4804 80.7071 14.2929C80.5196 14.1054 80.2652 14 80 14ZM90 28C89.7348 28 89.4804 28.1054 89.2929 28.2929C89.1054 28.4804 89 28.7348 89 29V33C89 33.2652 89.1054 33.5196 89.2929 33.7071C89.4804 33.8946 89.7348 34 90 34C90.2652 34 90.5196 33.8946 90.7071 33.7071C90.8946 33.5196 91 33.2652 91 33V29C91 28.7348 90.8946 28.4804 90.7071 28.2929C90.5196 28.1054 90.2652 28 90 28ZM85 20C84.7348 20 84.4804 20.1054 84.2929 20.2929C84.1054 20.4804 84 20.7348 84 21V33C84 33.2652 84.1054 33.5196 84.2929 33.7071C84.4804 33.8946 84.7348 34 85 34C85.2652 34 85.5196 33.8946 85.7071 33.7071C85.8946 33.5196 86 33.2652 86 33V21C86 20.7348 85.8946 20.4804 85.7071 20.2929C85.5196 20.1054 85.2652 20 85 20Z" fill="#C8CACB"/>
</svg>
