<svg width="194" height="24" viewBox="0 0 194 24" fill="none" xmlns="http://www.w3.org/2000/svg">
<path d="M12 2L15.09 8.26L22 9.27L17 14.14L18.18 21.02L12 17.77L5.82 21.02L7 14.14L2 9.27L8.91 8.26L12 2Z" fill="#FBB13C"/>
<path d="M38 2L41.09 8.26L48 9.27L43 14.14L44.18 21.02L38 17.77L31.82 21.02L33 14.14L28 9.27L34.91 8.26L38 2Z" fill="#FBB13C"/>
<path d="M64 2L67.09 8.26L74 9.27L69 14.14L70.18 21.02L64 17.77L57.82 21.02L59 14.14L54 9.27L60.91 8.26L64 2Z" fill="#FBB13C"/>
<path d="M90 2L93.09 8.26L100 9.27L95 14.14L96.18 21.02L90 17.77L83.82 21.02L85 14.14L80 9.27L86.91 8.26L90 2Z" fill="#FBB13C"/>
<path d="M116 2L119.09 8.26L126 9.27L121 14.14L122.18 21.02L116 17.77L109.82 21.02L111 14.14L106 9.27L112.91 8.26L116 2Z" fill="#FBB13C"/>
<path d="M159 15C159 15.5304 158.789 16.0391 158.414 16.4142C158.039 16.7893 157.53 17 157 17H145L141 21V5C141 4.46957 141.211 3.96086 141.586 3.58579C141.961 3.21071 142.47 3 143 3H157C157.53 3 158.039 3.21071 158.414 3.58579C158.789 3.96086 159 4.46957 159 5V15Z" stroke="#070C11" stroke-width="2" stroke-linecap="round" stroke-linejoin="round"/>
<path d="M172.104 4.36L172.312 5.08C171.267 5.592 170.509 6.424 170.04 7.576C169.571 8.728 169.336 10.2 169.336 11.992C169.336 13.1653 169.437 14.2107 169.64 15.128C169.843 16.0347 170.163 16.8027 170.6 17.432C171.037 18.0613 171.608 18.5573 172.312 18.92L172.104 19.64C170.632 19.0853 169.549 18.1947 168.856 16.968C168.163 15.7307 167.816 14.0773 167.816 12.008C167.816 9.928 168.163 8.26933 168.856 7.032C169.549 5.79467 170.632 4.904 172.104 4.36ZM177.502 5.96V17H175.902V8.424C175.902 8.25333 175.907 8.088 175.918 7.928C175.928 7.75733 175.95 7.58667 175.982 7.416L173.294 8.232L173.086 7.096L175.902 5.96H177.502ZM186.146 5.96C186.37 5.96 186.552 6.00267 186.69 6.088C186.829 6.17333 186.92 6.296 186.962 6.456C187.005 6.60533 186.994 6.78667 186.93 7L183.49 17H181.906L184.946 8.168C185.01 8.008 185.069 7.85867 185.122 7.72C185.176 7.58133 185.24 7.44267 185.314 7.304H179.89L179.826 5.96H186.146ZM188.125 4.36C189.607 4.904 190.695 5.79467 191.389 7.032C192.082 8.26933 192.429 9.928 192.429 12.008C192.429 14.0773 192.082 15.7307 191.389 16.968C190.695 18.1947 189.607 19.0853 188.125 19.64L187.949 18.92C188.642 18.5573 189.202 18.0613 189.629 17.432C190.066 16.8027 190.386 16.0347 190.589 15.128C190.802 14.2107 190.909 13.1653 190.909 11.992C190.909 10.2 190.674 8.728 190.205 7.576C189.746 6.424 188.994 5.592 187.949 5.08L188.125 4.36Z" fill="#070C11"/>
</svg>
